<mxfile host="app.diagrams.net" modified="2023-07-11T09:10:47.765Z" agent="Mozilla/5.0 (X11; Linux x86_64) AppleWebKit/537.36 (KHTML, like Gecko) Chrome/112.0.0.0 YaBrowser/23.5.4.682 (beta) Yowser/2.5 Safari/537.36" etag="j61sycdFx1YOzyTQ9igD" version="21.6.1" type="github">
  <diagram name="Страница 1" id="zyB2erYOMSTsvj0ESj8m">
    <mxGraphModel dx="2264" dy="585" grid="0" gridSize="10" guides="1" tooltips="1" connect="1" arrows="1" fold="1" page="1" pageScale="1" pageWidth="1169" pageHeight="827" background="#000000" math="0" shadow="0">
      <root>
        <mxCell id="0" />
        <mxCell id="1" parent="0" />
        <mxCell id="6mIqttXXYSMFG4GlQo4u-18" value="" style="edgeStyle=orthogonalEdgeStyle;rounded=0;orthogonalLoop=1;jettySize=auto;html=1;" edge="1" parent="1" source="6mIqttXXYSMFG4GlQo4u-1" target="6mIqttXXYSMFG4GlQo4u-3">
          <mxGeometry relative="1" as="geometry" />
        </mxCell>
        <mxCell id="6mIqttXXYSMFG4GlQo4u-1" value="" style="rounded=0;whiteSpace=wrap;html=1;fillColor=#33FF33;strokeColor=#36393d;" vertex="1" parent="1">
          <mxGeometry x="40" y="80" width="20" height="400" as="geometry" />
        </mxCell>
        <mxCell id="6mIqttXXYSMFG4GlQo4u-2" value="" style="rounded=0;whiteSpace=wrap;html=1;fillColor=#33FF33;" vertex="1" parent="1">
          <mxGeometry x="100" y="100" width="20" height="360" as="geometry" />
        </mxCell>
        <mxCell id="6mIqttXXYSMFG4GlQo4u-3" value="" style="rounded=0;whiteSpace=wrap;html=1;fillColor=#33FF33;" vertex="1" parent="1">
          <mxGeometry x="160" y="120" width="20" height="320" as="geometry" />
        </mxCell>
        <mxCell id="6mIqttXXYSMFG4GlQo4u-4" value="" style="rounded=0;whiteSpace=wrap;html=1;fillColor=#33FF33;" vertex="1" parent="1">
          <mxGeometry x="220" y="140" width="20" height="280" as="geometry" />
        </mxCell>
        <mxCell id="6mIqttXXYSMFG4GlQo4u-5" value="" style="rounded=0;whiteSpace=wrap;html=1;fillColor=#33FF33;" vertex="1" parent="1">
          <mxGeometry x="280" y="160" width="20" height="240" as="geometry" />
        </mxCell>
        <mxCell id="6mIqttXXYSMFG4GlQo4u-6" value="" style="rounded=0;whiteSpace=wrap;html=1;fillColor=#33FF33;" vertex="1" parent="1">
          <mxGeometry x="340" y="180" width="20" height="200" as="geometry" />
        </mxCell>
        <mxCell id="6mIqttXXYSMFG4GlQo4u-7" value="" style="rounded=0;whiteSpace=wrap;html=1;fillColor=#007FFF;" vertex="1" parent="1">
          <mxGeometry x="400" y="200" width="20" height="160" as="geometry" />
        </mxCell>
        <mxCell id="6mIqttXXYSMFG4GlQo4u-8" value="" style="rounded=0;whiteSpace=wrap;html=1;fillColor=#FF6666;" vertex="1" parent="1">
          <mxGeometry x="460" y="180" width="20" height="200" as="geometry" />
        </mxCell>
        <mxCell id="6mIqttXXYSMFG4GlQo4u-9" value="" style="rounded=0;whiteSpace=wrap;html=1;fillColor=#FF6666;" vertex="1" parent="1">
          <mxGeometry x="520" y="160" width="20" height="240" as="geometry" />
        </mxCell>
        <mxCell id="6mIqttXXYSMFG4GlQo4u-10" value="" style="rounded=0;whiteSpace=wrap;html=1;fillColor=#FF6666;" vertex="1" parent="1">
          <mxGeometry x="580" y="140" width="20" height="280" as="geometry" />
        </mxCell>
        <mxCell id="6mIqttXXYSMFG4GlQo4u-11" value="" style="rounded=0;whiteSpace=wrap;html=1;fillColor=#FF6666;" vertex="1" parent="1">
          <mxGeometry x="700" y="100" width="20" height="360" as="geometry" />
        </mxCell>
        <mxCell id="6mIqttXXYSMFG4GlQo4u-12" value="" style="rounded=0;whiteSpace=wrap;html=1;fillColor=#FF6666;" vertex="1" parent="1">
          <mxGeometry x="640" y="120" width="20" height="320" as="geometry" />
        </mxCell>
        <mxCell id="6mIqttXXYSMFG4GlQo4u-13" value="" style="rounded=0;whiteSpace=wrap;html=1;fillColor=#FF6666;" vertex="1" parent="1">
          <mxGeometry x="760" y="80" width="20" height="400" as="geometry" />
        </mxCell>
        <mxCell id="6mIqttXXYSMFG4GlQo4u-14" value="" style="rounded=0;whiteSpace=wrap;html=1;fillColor=#6a00ff;strokeColor=#3700CC;fontColor=#ffffff;" vertex="1" parent="1">
          <mxGeometry x="820" y="80" width="20" height="400" as="geometry" />
        </mxCell>
        <mxCell id="6mIqttXXYSMFG4GlQo4u-17" value="" style="endArrow=classic;html=1;rounded=0;entryX=0;entryY=0.5;entryDx=0;entryDy=0;strokeColor=#FFFFFF;" edge="1" parent="1" target="6mIqttXXYSMFG4GlQo4u-2">
          <mxGeometry width="50" height="50" relative="1" as="geometry">
            <mxPoint x="60" y="280" as="sourcePoint" />
            <mxPoint x="110" y="230" as="targetPoint" />
          </mxGeometry>
        </mxCell>
        <mxCell id="6mIqttXXYSMFG4GlQo4u-19" value="" style="endArrow=classic;html=1;rounded=0;entryX=0;entryY=0.5;entryDx=0;entryDy=0;strokeColor=#FFFFFF;" edge="1" parent="1">
          <mxGeometry width="50" height="50" relative="1" as="geometry">
            <mxPoint x="120" y="279.5" as="sourcePoint" />
            <mxPoint x="160" y="279.5" as="targetPoint" />
          </mxGeometry>
        </mxCell>
        <mxCell id="6mIqttXXYSMFG4GlQo4u-21" value="" style="endArrow=classic;html=1;rounded=0;entryX=0;entryY=0.5;entryDx=0;entryDy=0;strokeColor=#FFFFFF;" edge="1" parent="1">
          <mxGeometry width="50" height="50" relative="1" as="geometry">
            <mxPoint x="180" y="279.5" as="sourcePoint" />
            <mxPoint x="220" y="279.5" as="targetPoint" />
          </mxGeometry>
        </mxCell>
        <mxCell id="6mIqttXXYSMFG4GlQo4u-22" value="" style="endArrow=classic;html=1;rounded=0;entryX=0;entryY=0.5;entryDx=0;entryDy=0;strokeColor=#FFFFFF;" edge="1" parent="1">
          <mxGeometry width="50" height="50" relative="1" as="geometry">
            <mxPoint x="240" y="279.5" as="sourcePoint" />
            <mxPoint x="280" y="279.5" as="targetPoint" />
          </mxGeometry>
        </mxCell>
        <mxCell id="6mIqttXXYSMFG4GlQo4u-23" value="" style="endArrow=classic;html=1;rounded=0;entryX=0;entryY=0.5;entryDx=0;entryDy=0;strokeColor=#FFFFFF;" edge="1" parent="1">
          <mxGeometry width="50" height="50" relative="1" as="geometry">
            <mxPoint x="300" y="279.5" as="sourcePoint" />
            <mxPoint x="340" y="279.5" as="targetPoint" />
          </mxGeometry>
        </mxCell>
        <mxCell id="6mIqttXXYSMFG4GlQo4u-24" value="" style="endArrow=classic;html=1;rounded=0;entryX=0;entryY=0.5;entryDx=0;entryDy=0;strokeColor=#FFFFFF;" edge="1" parent="1">
          <mxGeometry width="50" height="50" relative="1" as="geometry">
            <mxPoint x="360" y="279.5" as="sourcePoint" />
            <mxPoint x="400" y="279.5" as="targetPoint" />
          </mxGeometry>
        </mxCell>
        <mxCell id="6mIqttXXYSMFG4GlQo4u-25" value="" style="endArrow=classic;html=1;rounded=0;entryX=0;entryY=0.5;entryDx=0;entryDy=0;strokeColor=#FFFFFF;" edge="1" parent="1">
          <mxGeometry width="50" height="50" relative="1" as="geometry">
            <mxPoint x="420" y="279.5" as="sourcePoint" />
            <mxPoint x="460" y="279.5" as="targetPoint" />
          </mxGeometry>
        </mxCell>
        <mxCell id="6mIqttXXYSMFG4GlQo4u-26" value="" style="endArrow=classic;html=1;rounded=0;entryX=0;entryY=0.5;entryDx=0;entryDy=0;strokeColor=#FFFFFF;" edge="1" parent="1">
          <mxGeometry width="50" height="50" relative="1" as="geometry">
            <mxPoint x="480" y="279.5" as="sourcePoint" />
            <mxPoint x="520" y="279.5" as="targetPoint" />
          </mxGeometry>
        </mxCell>
        <mxCell id="6mIqttXXYSMFG4GlQo4u-27" value="" style="endArrow=classic;html=1;rounded=0;entryX=0;entryY=0.5;entryDx=0;entryDy=0;strokeColor=#FFFFFF;" edge="1" parent="1">
          <mxGeometry width="50" height="50" relative="1" as="geometry">
            <mxPoint x="540" y="279.5" as="sourcePoint" />
            <mxPoint x="580" y="279.5" as="targetPoint" />
          </mxGeometry>
        </mxCell>
        <mxCell id="6mIqttXXYSMFG4GlQo4u-28" value="" style="endArrow=classic;html=1;rounded=0;entryX=0;entryY=0.5;entryDx=0;entryDy=0;strokeColor=#FFFFFF;" edge="1" parent="1">
          <mxGeometry width="50" height="50" relative="1" as="geometry">
            <mxPoint x="600" y="279.5" as="sourcePoint" />
            <mxPoint x="640" y="279.5" as="targetPoint" />
          </mxGeometry>
        </mxCell>
        <mxCell id="6mIqttXXYSMFG4GlQo4u-29" value="" style="endArrow=classic;html=1;rounded=0;entryX=0;entryY=0.5;entryDx=0;entryDy=0;strokeColor=#FFFFFF;" edge="1" parent="1">
          <mxGeometry width="50" height="50" relative="1" as="geometry">
            <mxPoint x="660" y="279.5" as="sourcePoint" />
            <mxPoint x="700" y="279.5" as="targetPoint" />
          </mxGeometry>
        </mxCell>
        <mxCell id="6mIqttXXYSMFG4GlQo4u-30" value="" style="endArrow=classic;html=1;rounded=0;entryX=0;entryY=0.5;entryDx=0;entryDy=0;strokeColor=#FFFFFF;" edge="1" parent="1">
          <mxGeometry width="50" height="50" relative="1" as="geometry">
            <mxPoint x="720" y="279.5" as="sourcePoint" />
            <mxPoint x="760" y="279.5" as="targetPoint" />
          </mxGeometry>
        </mxCell>
        <mxCell id="6mIqttXXYSMFG4GlQo4u-31" value="" style="endArrow=classic;html=1;rounded=0;entryX=0;entryY=0.5;entryDx=0;entryDy=0;strokeColor=#FFFFFF;" edge="1" parent="1">
          <mxGeometry width="50" height="50" relative="1" as="geometry">
            <mxPoint x="780" y="279.5" as="sourcePoint" />
            <mxPoint x="820" y="279.5" as="targetPoint" />
          </mxGeometry>
        </mxCell>
        <mxCell id="6mIqttXXYSMFG4GlQo4u-33" value="" style="endArrow=classic;html=1;rounded=0;strokeColor=#FFFFFF;dashed=1;" edge="1" parent="1">
          <mxGeometry width="50" height="50" relative="1" as="geometry">
            <mxPoint x="360" y="190" as="sourcePoint" />
            <mxPoint x="460" y="190" as="targetPoint" />
          </mxGeometry>
        </mxCell>
        <mxCell id="6mIqttXXYSMFG4GlQo4u-34" value="" style="endArrow=classic;html=1;rounded=0;strokeColor=#FFFFFF;dashed=1;" edge="1" parent="1">
          <mxGeometry width="50" height="50" relative="1" as="geometry">
            <mxPoint x="300" y="170" as="sourcePoint" />
            <mxPoint x="520" y="170" as="targetPoint" />
          </mxGeometry>
        </mxCell>
        <mxCell id="6mIqttXXYSMFG4GlQo4u-35" value="" style="endArrow=classic;html=1;rounded=0;strokeColor=#FFFFFF;dashed=1;entryX=0;entryY=0.036;entryDx=0;entryDy=0;entryPerimeter=0;" edge="1" parent="1" target="6mIqttXXYSMFG4GlQo4u-10">
          <mxGeometry width="50" height="50" relative="1" as="geometry">
            <mxPoint x="240" y="150" as="sourcePoint" />
            <mxPoint x="340" y="150" as="targetPoint" />
          </mxGeometry>
        </mxCell>
        <mxCell id="6mIqttXXYSMFG4GlQo4u-36" value="" style="endArrow=classic;html=1;rounded=0;strokeColor=#FFFFFF;dashed=1;entryX=-0.14;entryY=0.03;entryDx=0;entryDy=0;entryPerimeter=0;" edge="1" parent="1" target="6mIqttXXYSMFG4GlQo4u-12">
          <mxGeometry width="50" height="50" relative="1" as="geometry">
            <mxPoint x="180" y="130" as="sourcePoint" />
            <mxPoint x="280" y="130" as="targetPoint" />
          </mxGeometry>
        </mxCell>
        <mxCell id="6mIqttXXYSMFG4GlQo4u-37" value="" style="endArrow=classic;html=1;rounded=0;strokeColor=#FFFFFF;dashed=1;" edge="1" parent="1">
          <mxGeometry width="50" height="50" relative="1" as="geometry">
            <mxPoint x="120" y="110.28" as="sourcePoint" />
            <mxPoint x="700" y="110" as="targetPoint" />
          </mxGeometry>
        </mxCell>
        <mxCell id="6mIqttXXYSMFG4GlQo4u-38" value="" style="endArrow=classic;html=1;rounded=0;strokeColor=#FFFFFF;dashed=1;" edge="1" parent="1">
          <mxGeometry width="50" height="50" relative="1" as="geometry">
            <mxPoint x="60" y="90" as="sourcePoint" />
            <mxPoint x="760" y="90" as="targetPoint" />
          </mxGeometry>
        </mxCell>
        <mxCell id="6mIqttXXYSMFG4GlQo4u-40" value="" style="rounded=0;whiteSpace=wrap;html=1;fillColor=#33FF33;" vertex="1" parent="1">
          <mxGeometry x="40" y="520" width="40" height="30" as="geometry" />
        </mxCell>
        <mxCell id="6mIqttXXYSMFG4GlQo4u-41" value="" style="rounded=0;whiteSpace=wrap;html=1;fillColor=#007FFF;" vertex="1" parent="1">
          <mxGeometry x="40" y="560" width="40" height="30" as="geometry" />
        </mxCell>
        <mxCell id="6mIqttXXYSMFG4GlQo4u-42" value="" style="rounded=0;whiteSpace=wrap;html=1;fillColor=#FF6666;" vertex="1" parent="1">
          <mxGeometry x="40" y="600" width="40" height="30" as="geometry" />
        </mxCell>
        <mxCell id="6mIqttXXYSMFG4GlQo4u-45" value="" style="rounded=0;whiteSpace=wrap;html=1;fillColor=#6a00ff;fontColor=#ffffff;strokeColor=#3700CC;" vertex="1" parent="1">
          <mxGeometry x="320" y="520" width="40" height="30" as="geometry" />
        </mxCell>
        <mxCell id="6mIqttXXYSMFG4GlQo4u-46" value="" style="endArrow=classic;html=1;rounded=0;entryX=0;entryY=0.5;entryDx=0;entryDy=0;strokeColor=#FFFFFF;" edge="1" parent="1">
          <mxGeometry width="50" height="50" relative="1" as="geometry">
            <mxPoint x="320" y="574.5" as="sourcePoint" />
            <mxPoint x="360" y="574.5" as="targetPoint" />
          </mxGeometry>
        </mxCell>
        <mxCell id="6mIqttXXYSMFG4GlQo4u-47" value="" style="endArrow=classic;html=1;rounded=0;strokeColor=#FFFFFF;dashed=1;" edge="1" parent="1">
          <mxGeometry width="50" height="50" relative="1" as="geometry">
            <mxPoint x="320" y="614.5" as="sourcePoint" />
            <mxPoint x="360" y="615" as="targetPoint" />
          </mxGeometry>
        </mxCell>
        <mxCell id="6mIqttXXYSMFG4GlQo4u-48" value="Text" style="text;strokeColor=none;align=center;fillColor=none;html=1;verticalAlign=middle;whiteSpace=wrap;rounded=0;" vertex="1" parent="1">
          <mxGeometry x="410" y="360" width="60" height="30" as="geometry" />
        </mxCell>
        <mxCell id="6mIqttXXYSMFG4GlQo4u-49" value="&lt;font color=&quot;#ffffff&quot;&gt;Contractive block&lt;/font&gt;" style="text;strokeColor=none;align=center;fillColor=none;html=1;verticalAlign=middle;whiteSpace=wrap;rounded=0;" vertex="1" parent="1">
          <mxGeometry x="100" y="520" width="120" height="30" as="geometry" />
        </mxCell>
        <mxCell id="6mIqttXXYSMFG4GlQo4u-51" value="&lt;font color=&quot;#ffffff&quot;&gt;Expansive block&lt;/font&gt;" style="text;strokeColor=none;align=center;fillColor=none;html=1;verticalAlign=middle;whiteSpace=wrap;rounded=0;" vertex="1" parent="1">
          <mxGeometry x="100" y="560" width="120" height="30" as="geometry" />
        </mxCell>
        <mxCell id="6mIqttXXYSMFG4GlQo4u-52" value="&lt;font color=&quot;#ffffff&quot;&gt;Center block&lt;/font&gt;" style="text;strokeColor=none;align=center;fillColor=none;html=1;verticalAlign=middle;whiteSpace=wrap;rounded=0;" vertex="1" parent="1">
          <mxGeometry x="100" y="600" width="120" height="30" as="geometry" />
        </mxCell>
        <mxCell id="6mIqttXXYSMFG4GlQo4u-53" value="&lt;font color=&quot;#ffffff&quot;&gt;1x1 Convolution + ReLU&lt;/font&gt;" style="text;strokeColor=none;align=center;fillColor=none;html=1;verticalAlign=middle;whiteSpace=wrap;rounded=0;" vertex="1" parent="1">
          <mxGeometry x="380" y="520" width="120" height="30" as="geometry" />
        </mxCell>
        <mxCell id="6mIqttXXYSMFG4GlQo4u-54" value="&lt;font color=&quot;#ffffff&quot;&gt;Tensor(Forward connection)&lt;/font&gt;" style="text;strokeColor=none;align=center;fillColor=none;html=1;verticalAlign=middle;whiteSpace=wrap;rounded=0;" vertex="1" parent="1">
          <mxGeometry x="380" y="560" width="120" height="30" as="geometry" />
        </mxCell>
        <mxCell id="6mIqttXXYSMFG4GlQo4u-55" value="&lt;font color=&quot;#ffffff&quot;&gt;Tensor(Skip connection)&lt;/font&gt;" style="text;strokeColor=none;align=center;fillColor=none;html=1;verticalAlign=middle;whiteSpace=wrap;rounded=0;" vertex="1" parent="1">
          <mxGeometry x="380" y="600" width="120" height="30" as="geometry" />
        </mxCell>
        <mxCell id="6mIqttXXYSMFG4GlQo4u-56" value="&lt;font color=&quot;#ffffff&quot;&gt;1024x1024x8&lt;/font&gt;" style="text;strokeColor=none;align=center;fillColor=none;html=1;verticalAlign=middle;whiteSpace=wrap;rounded=0;" vertex="1" parent="1">
          <mxGeometry x="-10" y="480" width="120" height="30" as="geometry" />
        </mxCell>
        <mxCell id="6mIqttXXYSMFG4GlQo4u-58" value="&lt;font color=&quot;#ffffff&quot;&gt;512x512x16&lt;/font&gt;" style="text;strokeColor=none;align=center;fillColor=none;html=1;verticalAlign=middle;whiteSpace=wrap;rounded=0;" vertex="1" parent="1">
          <mxGeometry x="50" y="460" width="120" height="30" as="geometry" />
        </mxCell>
        <mxCell id="6mIqttXXYSMFG4GlQo4u-59" value="&lt;font color=&quot;#ffffff&quot;&gt;256x256x32&lt;/font&gt;" style="text;strokeColor=none;align=center;fillColor=none;html=1;verticalAlign=middle;whiteSpace=wrap;rounded=0;" vertex="1" parent="1">
          <mxGeometry x="110" y="440" width="120" height="30" as="geometry" />
        </mxCell>
        <mxCell id="6mIqttXXYSMFG4GlQo4u-60" value="&lt;font color=&quot;#ffffff&quot;&gt;128x128x64&lt;/font&gt;" style="text;strokeColor=none;align=center;fillColor=none;html=1;verticalAlign=middle;whiteSpace=wrap;rounded=0;" vertex="1" parent="1">
          <mxGeometry x="170" y="420" width="120" height="30" as="geometry" />
        </mxCell>
        <mxCell id="6mIqttXXYSMFG4GlQo4u-61" value="&lt;font color=&quot;#ffffff&quot;&gt;64x64x128&lt;/font&gt;" style="text;strokeColor=none;align=center;fillColor=none;html=1;verticalAlign=middle;whiteSpace=wrap;rounded=0;" vertex="1" parent="1">
          <mxGeometry x="230" y="398.5" width="120" height="30" as="geometry" />
        </mxCell>
        <mxCell id="6mIqttXXYSMFG4GlQo4u-62" value="&lt;font color=&quot;#ffffff&quot;&gt;32x32x256&lt;/font&gt;" style="text;strokeColor=none;align=center;fillColor=none;html=1;verticalAlign=middle;whiteSpace=wrap;rounded=0;" vertex="1" parent="1">
          <mxGeometry x="290" y="380" width="120" height="30" as="geometry" />
        </mxCell>
        <mxCell id="6mIqttXXYSMFG4GlQo4u-63" value="&lt;font color=&quot;#ffffff&quot;&gt;16x16x512&lt;/font&gt;" style="text;strokeColor=none;align=center;fillColor=none;html=1;verticalAlign=middle;whiteSpace=wrap;rounded=0;" vertex="1" parent="1">
          <mxGeometry x="350" y="360" width="120" height="30" as="geometry" />
        </mxCell>
        <mxCell id="6mIqttXXYSMFG4GlQo4u-65" value="&lt;font color=&quot;#ffffff&quot;&gt;32x32x256&lt;/font&gt;" style="text;strokeColor=none;align=center;fillColor=none;html=1;verticalAlign=middle;whiteSpace=wrap;rounded=0;" vertex="1" parent="1">
          <mxGeometry x="410" y="380" width="120" height="30" as="geometry" />
        </mxCell>
        <mxCell id="6mIqttXXYSMFG4GlQo4u-66" value="&lt;font color=&quot;#ffffff&quot;&gt;64x64x128&lt;/font&gt;" style="text;strokeColor=none;align=center;fillColor=none;html=1;verticalAlign=middle;whiteSpace=wrap;rounded=0;" vertex="1" parent="1">
          <mxGeometry x="470" y="399" width="120" height="30" as="geometry" />
        </mxCell>
        <mxCell id="6mIqttXXYSMFG4GlQo4u-67" value="&lt;font color=&quot;#ffffff&quot;&gt;128x128x64&lt;/font&gt;" style="text;strokeColor=none;align=center;fillColor=none;html=1;verticalAlign=middle;whiteSpace=wrap;rounded=0;" vertex="1" parent="1">
          <mxGeometry x="530" y="420" width="120" height="30" as="geometry" />
        </mxCell>
        <mxCell id="6mIqttXXYSMFG4GlQo4u-68" value="&lt;font color=&quot;#ffffff&quot;&gt;256x256x32&lt;/font&gt;" style="text;strokeColor=none;align=center;fillColor=none;html=1;verticalAlign=middle;whiteSpace=wrap;rounded=0;" vertex="1" parent="1">
          <mxGeometry x="590" y="440" width="120" height="30" as="geometry" />
        </mxCell>
        <mxCell id="6mIqttXXYSMFG4GlQo4u-69" value="&lt;font color=&quot;#ffffff&quot;&gt;512x512x16&lt;/font&gt;" style="text;strokeColor=none;align=center;fillColor=none;html=1;verticalAlign=middle;whiteSpace=wrap;rounded=0;" vertex="1" parent="1">
          <mxGeometry x="650" y="460" width="120" height="30" as="geometry" />
        </mxCell>
        <mxCell id="6mIqttXXYSMFG4GlQo4u-70" value="&lt;font color=&quot;#ffffff&quot;&gt;1024x1024x8&lt;/font&gt;" style="text;strokeColor=none;align=center;fillColor=none;html=1;verticalAlign=middle;whiteSpace=wrap;rounded=0;" vertex="1" parent="1">
          <mxGeometry x="690" y="480" width="120" height="30" as="geometry" />
        </mxCell>
        <mxCell id="6mIqttXXYSMFG4GlQo4u-71" value="&lt;font color=&quot;#ffffff&quot;&gt;1024x1024x1&lt;/font&gt;" style="text;strokeColor=none;align=center;fillColor=none;html=1;verticalAlign=middle;whiteSpace=wrap;rounded=0;" vertex="1" parent="1">
          <mxGeometry x="780" y="480" width="120" height="30" as="geometry" />
        </mxCell>
      </root>
    </mxGraphModel>
  </diagram>
</mxfile>
